<svg width="37" height="37" viewBox="0 0 37 37" fill="none" xmlns="http://www.w3.org/2000/svg">
<path d="M34.9647 2.03529C33.6072 0.677812 31.9738 0 30.0626 0H6.93738C5.02618 0 3.39276 0.677812 2.03529 2.03529C0.677812 3.39276 0 5.02618 0 6.93738V30.0626C0 31.9738 0.677812 33.6072 2.03529 34.9647C3.39276 36.3222 5.02618 37 6.93738 37H12.334C12.6858 37 12.9506 36.987 13.1284 36.963C13.3353 36.9215 13.522 36.8112 13.6581 36.65C13.834 36.4648 13.9229 36.1963 13.9229 35.8444L13.91 34.2054C13.9025 33.1609 13.8988 32.3349 13.8988 31.7238L13.3433 31.8201C12.9914 31.8849 12.5469 31.9127 12.008 31.9053C11.4463 31.8949 10.8864 31.8386 10.3339 31.7368C9.74568 31.6282 9.19199 31.3805 8.71896 31.0145C8.22355 30.6397 7.85405 30.123 7.65964 29.533L7.41889 28.9774C7.21597 28.5391 6.96104 28.1269 6.65959 27.7495C6.31513 27.2995 5.96511 26.9958 5.61139 26.8347L5.44472 26.7143C5.32849 26.6311 5.22278 26.5341 5.12989 26.4254C5.04116 26.3246 4.96812 26.2109 4.91321 26.0883C4.86506 25.9754 4.9058 25.8828 5.03359 25.8106C5.16322 25.7365 5.39471 25.7013 5.73362 25.7013L6.21513 25.7754C6.53551 25.8383 6.93368 26.0309 7.40593 26.3513C7.88384 26.6771 8.28306 27.1055 8.5745 27.6051C8.94489 28.2625 9.38936 28.7644 9.91161 29.1107C10.4339 29.4552 10.9598 29.6293 11.4895 29.6293C12.0191 29.6293 12.4766 29.5885 12.8636 29.5089C13.2379 29.4315 13.6016 29.3096 13.947 29.1459C14.0914 28.0718 14.4841 27.2421 15.1267 26.6643C14.294 26.5827 13.4687 26.4378 12.658 26.2309C11.8669 26.0136 11.106 25.6982 10.3931 25.292C9.64723 24.8859 8.98842 24.3372 8.45413 23.6771C7.94114 23.0345 7.51889 22.1919 7.18925 21.1492C6.86145 20.1047 6.69663 18.8991 6.69663 17.5342C6.69663 15.5915 7.33 13.9377 8.59858 12.571C8.00596 11.1117 8.06151 9.4727 8.76711 7.65964C9.2338 7.51334 9.92457 7.6226 10.8394 7.98373C11.7543 8.34486 12.4247 8.65414 12.8506 8.90971C13.2766 9.16898 13.6173 9.38566 13.8748 9.56159C15.3804 9.14259 16.9363 8.93198 18.4991 8.93563C20.0899 8.93563 21.6307 9.1449 23.1252 9.56159L24.0401 8.98378C24.7438 8.56127 25.4861 8.20657 26.2569 7.92447C27.1088 7.60223 27.7569 7.51519 28.2088 7.65964C28.9311 9.47455 28.994 11.1117 28.3996 12.5729C29.6682 13.9377 30.3034 15.5915 30.3034 17.5361C30.3034 18.9009 30.1385 20.1103 29.8089 21.1603C29.4811 22.2122 29.0552 23.0549 28.5329 23.6901C27.9892 24.3417 27.3276 24.8852 26.5828 25.292C25.805 25.7254 25.0494 26.0383 24.3179 26.2309C23.5072 26.4385 22.682 26.584 21.8492 26.6662C22.6826 27.3884 23.1012 28.5274 23.1012 30.0848V35.8444C23.1012 36.1166 23.14 36.337 23.2215 36.5055C23.259 36.5867 23.3124 36.6596 23.3786 36.7197C23.4447 36.7798 23.5223 36.826 23.6067 36.8555C23.7845 36.9185 23.9401 36.9593 24.0771 36.9741C24.2142 36.9926 24.4105 36.9981 24.666 36.9981H30.0626C31.9738 36.9981 33.6072 36.3203 34.9647 34.9629C36.3203 33.6072 37 31.972 37 30.0608V6.93738C37 5.02618 36.3222 3.39276 34.9647 2.03529Z" fill="#E14C79"/>
</svg>
