<svg width="37" height="37" viewBox="0 0 37 37" fill="none" xmlns="http://www.w3.org/2000/svg">
<path d="M0 2.65013C0 1.18631 1.21637 0 2.71719 0H34.2828C35.7836 0 37 1.18631 37 2.65013V34.3499C37 35.8137 35.7836 37 34.2828 37H2.71719C1.21637 37 0 35.8137 0 34.3499V2.65013ZM11.4307 30.9736V14.2658H5.87838V30.9736H11.4307ZM8.65569 11.9834C10.5913 11.9834 11.7961 10.7023 11.7961 9.09737C11.7614 7.45781 10.5936 6.21138 8.69269 6.21138C6.79181 6.21138 5.55 7.46012 5.55 9.09737C5.55 10.7023 6.75481 11.9834 8.61869 11.9834H8.65569ZM20.0054 30.9736V21.6427C20.0054 21.1432 20.0424 20.6437 20.1904 20.2876C20.5905 19.2909 21.5039 18.2572 23.0394 18.2572C25.049 18.2572 25.8514 19.7881 25.8514 22.0358V30.9736H31.4037V21.3906C31.4037 16.2569 28.6658 13.8704 25.012 13.8704C22.0659 13.8704 20.7454 15.4891 20.0054 16.6292V16.687H19.9684C19.9807 16.6677 19.9931 16.6484 20.0054 16.6292V14.2658H14.4554C14.5248 15.8337 14.4554 30.9736 14.4554 30.9736H20.0054Z" fill="#E14C79"/>
</svg>
